<svg width="27" height="20" viewBox="0 0 27 20" fill="none" xmlns="http://www.w3.org/2000/svg">
<path d="M13.5 0C7.36364 0 2.12318 4.14667 0 10C2.12318 15.8533 7.36364 20 13.5 20C19.6364 20 24.8768 15.8533 27 10C24.8768 4.14667 19.6364 0 13.5 0ZM13.5 16.6667C10.1127 16.6667 7.36364 13.68 7.36364 10C7.36364 6.32 10.1127 3.33333 13.5 3.33333C16.8873 3.33333 19.6364 6.32 19.6364 10C19.6364 13.68 16.8873 16.6667 13.5 16.6667ZM13.5 6C11.4627 6 9.81818 7.78667 9.81818 10C9.81818 12.2133 11.4627 14 13.5 14C15.5373 14 17.1818 12.2133 17.1818 10C17.1818 7.78667 15.5373 6 13.5 6Z" fill="white"/>
</svg>
