<svg width="15" height="16" viewBox="0 0 15 16" fill="none" xmlns="http://www.w3.org/2000/svg">
<path d="M5.25123 16C4.56286 15.9967 3.88203 15.855 3.24836 15.5832C2.61469 15.3114 2.04084 14.915 1.5602 14.4169C1.08317 13.96 0.69998 13.4125 0.43255 12.8057C0.16512 12.199 0.018703 11.5448 0.00167765 10.8808C-0.0153477 10.2168 0.0973527 9.55592 0.33333 8.93597C0.569307 8.31602 0.923928 7.74918 1.3769 7.26789L7.50917 1.01142C7.83665 0.681062 8.22697 0.421203 8.65658 0.247531C9.08618 0.0738599 9.54616 -0.0100209 10.0087 0.000953212C10.5042 0.00265849 10.9944 0.104054 11.4508 0.299225C11.9071 0.494397 12.3204 0.779439 12.6666 1.13773C13.3556 1.80821 13.7552 2.72628 13.7786 3.69267C13.802 4.65907 13.4474 5.59579 12.7916 6.29953L6.62599 12.556C6.42851 12.7569 6.19351 12.9162 5.93463 13.0246C5.67575 13.133 5.39814 13.1884 5.11792 13.1875C4.8152 13.1879 4.51547 13.1271 4.23642 13.0085C3.95737 12.8899 3.70466 12.716 3.4932 12.4971C3.07055 12.0835 2.82646 11.5181 2.81398 10.9236C2.8015 10.3292 3.02163 9.75382 3.42654 9.3225L9.11722 3.54601C9.27918 3.4373 9.47365 3.38926 9.66696 3.4102C9.86028 3.43113 10.0403 3.51974 10.1757 3.66066C10.3112 3.80158 10.3937 3.98596 10.4088 4.18185C10.424 4.37774 10.3709 4.57282 10.2587 4.7333L4.56801 10.5098C4.47312 10.6253 4.42693 10.7739 4.4394 10.9236C4.45187 11.0732 4.52199 11.2119 4.63467 11.3098C4.75191 11.4291 4.90996 11.4984 5.07626 11.5034C5.13786 11.5043 5.19903 11.4929 5.25623 11.4697C5.31343 11.4466 5.36553 11.4123 5.40953 11.3687L11.5668 5.11223C11.9124 4.72419 12.093 4.21429 12.0697 3.69273C12.0463 3.17118 11.8207 2.67988 11.4418 2.32503C11.0899 1.95573 10.6113 1.73682 10.1045 1.71332C9.59765 1.68983 9.10121 1.86354 8.71729 2.19872L2.56003 8.4215C2.26062 8.74652 2.02776 9.12815 1.87484 9.54446C1.72192 9.96077 1.65197 10.4035 1.669 10.8473C1.68604 11.291 1.78973 11.727 1.9741 12.13C2.15848 12.5331 2.4199 12.8954 2.74333 13.196C3.06767 13.5358 3.45576 13.8068 3.88493 13.9933C4.3141 14.1798 4.77575 14.278 5.2429 14.2822C5.64567 14.2855 6.04513 14.2084 6.41832 14.0552C6.79151 13.902 7.13108 13.6758 7.41752 13.3896L13.5748 7.13316C13.6519 7.05465 13.7436 6.99226 13.8446 6.94956C13.9456 6.90686 14.0539 6.88468 14.1634 6.88429C14.2729 6.88389 14.3814 6.9053 14.4826 6.94728C14.5839 6.98926 14.6761 7.05099 14.7537 7.12895C14.8314 7.20691 14.8932 7.29957 14.9354 7.40164C14.9777 7.50371 14.9996 7.61319 15 7.72383C15.0004 7.83447 14.9792 7.94411 14.9377 8.04648C14.8961 8.14885 14.835 8.24195 14.7579 8.32046L8.60065 14.5769C8.16348 15.0266 7.64225 15.3839 7.06726 15.6282C6.49226 15.8725 5.87497 15.9989 5.25123 16Z" fill="#808080"/>
</svg>
