<svg width="28" height="34" viewBox="0 0 28 34" fill="none" xmlns="http://www.w3.org/2000/svg">
<path d="M11.8677 15.2844H19V12.4771H13.7092L10.7862 7.28349C10.3477 6.50367 9.55846 5.9734 8.65231 5.9734C8.38923 5.9734 8.15539 6.02018 7.92154 6.09817L0 8.73395V16.844H2.63077V11.1202L5.71461 10.0908L0 34H2.63077L6.82538 21.3514L10.2308 26.2018V34H12.8615V24.0028L9.22231 16.922L10.2892 12.4459M11.6923 5.61468C13.1538 5.61468 14.3231 4.36697 14.3231 2.80734C14.3231 1.24771 13.1538 0 11.6923 0C10.2308 0 9.06154 1.24771 9.06154 2.80734C9.06154 4.36697 10.2308 5.61468 11.6923 5.61468Z" fill="#F8F8F8"/>
<path d="M22.5 29L24.2125 26H18V25H24.2125L22.5 22L28 25.5L22.5 29Z" fill="#F8F8F8"/>
<path d="M21.5 24L16 20.5L21.5 17L19.7875 20H26V21H19.7875L21.5 24Z" fill="#F8F8F8"/>
</svg>
