<svg width="20" height="20" viewBox="0 0 20 20" fill="none" xmlns="http://www.w3.org/2000/svg">
<path fill-rule="evenodd" clip-rule="evenodd" d="M14.0909 12.8987L19.3827 18.2787C19.5687 18.468 19.6731 18.7246 19.673 18.9921C19.673 19.2596 19.5683 19.5161 19.3822 19.7052C19.1961 19.8943 18.9437 20.0005 18.6805 20.0004C18.4174 20.0003 18.1651 19.894 17.9791 19.7047L12.6873 14.3247C11.1054 15.5704 9.11609 16.1566 7.12414 15.9641C5.13218 15.7716 3.28719 14.8148 1.96448 13.2884C0.64178 11.7619 -0.0592771 9.78056 0.00393081 7.74729C0.0671387 5.71402 0.889864 3.7816 2.30474 2.34315C3.71961 0.904695 5.62035 0.0682577 7.62029 0.00399633C9.62022 -0.0602651 11.5691 0.652477 13.0705 1.99723C14.5719 3.34198 15.513 5.21772 15.7024 7.24287C15.8918 9.26802 15.3152 11.2905 14.0899 12.8987H14.0909ZM7.86958 13.9997C9.4348 13.9997 10.9359 13.3676 12.0427 12.2424C13.1494 11.1172 13.7712 9.59104 13.7712 7.99974C13.7712 6.40845 13.1494 4.88232 12.0427 3.7571C10.9359 2.63189 9.4348 1.99974 7.86958 1.99974C6.30437 1.99974 4.80327 2.63189 3.6965 3.7571C2.58972 4.88232 1.96795 6.40845 1.96795 7.99974C1.96795 9.59104 2.58972 11.1172 3.6965 12.2424C4.80327 13.3676 6.30437 13.9997 7.86958 13.9997Z" fill="black" fill-opacity="0.25"/>
</svg>
